# xmcd
#
# Track frame offsets: 
#        150
#        17519
#        38780
#        59375
#        86999
#        113911
#        141046
#        163691
#        193683
#        209309
#
# Disc length: 3110 seconds
#
# Revision: 0
# Processed by: cddbd v1.5.2PL0 Copyright (c) Steve Scherf et al.
# Submitted via: ExactAudioCopy v1.0b3
#
DISCID=880c240a
DTITLE=Various Artist - Ra Di Mang Theo Que Huong 2
DYEAR=2000
DGENRE=
TTITLE0=Thai Chau, My Huyen - Mot phut suy tu
TTITLE1=Tuan Vu - Ky niem mua he
TTITLE2=My Huyen - Hai loi mong
TTITLE3=Thanh Tuyen - Biet tra loi sao
TTITLE4=Thai Chau, My Huyen - Ngoai o buon
TTITLE5=Tuan Dung - Bo lang ra di
TTITLE6=Thai Chau - Rung la thay chua
TTITLE7=My Huyen - Xin thoi gian qua mau
TTITLE8=Huong Lan - Xin cho toi giac mong binh yen
TTITLE9=Tuan Vu - Loi ve dat Me
EXTD=
EXTT0=
EXTT1=
EXTT2=
EXTT3=
EXTT4=
EXTT5=
EXTT6=
EXTT7=
EXTT8=
EXTT9=
PLAYORDER=
